<?xml version="1.0" encoding="UTF-8"?><svg id="Layer_1" xmlns="http://www.w3.org/2000/svg" width="99.71mm" height="13.1mm" viewBox="0 0 282.65 37.15"><defs><style>.cls-1{fill:#4cbfa7;}.cls-2{fill:#5559a7;}</style></defs><polygon class="cls-2" points="0 0 23.86 23.97 39 9.06 39 14.48 23.81 29.45 0 5.91 0 0"/><polygon class="cls-1" points="0 9.06 22.24 30.97 19.5 34.06 3.9 18.39 3.9 26.25 0 29.99 0 9.06"/><polygon class="cls-1" points="39 0 39 5.91 23.86 20.88 20.94 17.9 39 0"/><polygon class="cls-1" points="39 17.74 34.6 21.56 34.6 26.14 39 30.1 39 17.74"/><path class="cls-2" d="M80.62,29.61h-4.61V11.48c0-1.48.09-3.3.27-5.45h-.08c-.29,1.22-.54,2.1-.76,2.64l-8.36,20.94h-3.2l-8.38-20.78c-.23-.61-.48-1.54-.74-2.79h-.08c.1,1.12.16,2.95.16,5.49v18.09h-4.3V1.6h6.54l7.36,18.65c.56,1.43.92,2.5,1.09,3.2h.1c.48-1.47.87-2.56,1.17-3.28l7.5-18.57h6.31v28.01Z"/><path class="cls-2" d="M110.52,29.61h-5.1l-2.52-7.13h-11.02l-2.42,7.13h-5.08L94.88,1.6h5.23l10.41,28.01ZM101.67,18.69l-3.89-11.17c-.12-.36-.24-.95-.37-1.76h-.08c-.12.74-.25,1.33-.39,1.76l-3.85,11.17h8.57Z"/><path class="cls-2" d="M119.14,29.61h-4.79V1.6h4.79v28.01Z"/><path class="cls-2" d="M141.54,29.61h-15.51V1.6h4.65v24.08h10.86v3.93Z"/><path class="cls-2" d="M186.66,29.61h-4.61V11.48c0-1.48.09-3.3.27-5.45h-.08c-.29,1.22-.54,2.1-.76,2.64l-8.36,20.94h-3.2l-8.38-20.78c-.23-.61-.48-1.54-.74-2.79h-.08c.1,1.12.16,2.95.16,5.49v18.09h-4.3V1.6h6.54l7.36,18.65c.56,1.43.92,2.5,1.09,3.2h.1c.48-1.47.87-2.56,1.17-3.28l7.5-18.57h6.31v28.01Z"/><path class="cls-2" d="M209.27,29.61h-15.72V1.6h15.1v3.95h-10.45v7.93h9.63v3.93h-9.63v8.28h11.07v3.93Z"/><path class="cls-2" d="M235.89,29.61h-5.43l-4.47-7.5c-.4-.69-.8-1.28-1.18-1.77s-.77-.89-1.17-1.2-.83-.54-1.3-.68c-.47-.14-1-.21-1.58-.21h-1.88v11.37h-4.63V1.6h9.22c1.32,0,2.53.16,3.63.47s2.07.79,2.89,1.42c.82.63,1.46,1.42,1.92,2.36.46.94.69,2.05.69,3.31,0,.99-.15,1.9-.44,2.72-.29.83-.71,1.56-1.25,2.21s-1.19,1.2-1.95,1.65c-.76.46-1.62.81-2.57,1.05v.08c.51.29.95.6,1.33.95.38.35.74.7,1.07,1.06.34.37.67.78,1.01,1.24.33.46.7,1,1.1,1.61l4.98,7.87ZM218.88,5.37v9.1h3.87c.72,0,1.38-.11,1.98-.33.61-.22,1.13-.54,1.57-.96.44-.42.79-.92,1.04-1.52.25-.6.37-1.27.37-2.01,0-1.34-.42-2.39-1.27-3.14-.85-.75-2.06-1.13-3.65-1.13h-3.91Z"/><path class="cls-2" d="M260.52,27.7c-2.92,1.59-6.17,2.38-9.75,2.38-4.14,0-7.49-1.29-10.06-3.87s-3.85-5.99-3.85-10.23,1.4-7.89,4.21-10.67c2.81-2.78,6.37-4.17,10.69-4.17,3.11,0,5.73.46,7.85,1.37v4.79c-2.15-1.43-4.71-2.15-7.68-2.15s-5.43.98-7.33,2.95c-1.91,1.97-2.86,4.51-2.86,7.64s.82,5.75,2.46,7.59c1.64,1.84,3.87,2.76,6.68,2.76,1.93,0,3.59-.37,5-1.11v-6.66h-5.9v-3.91h10.53v13.3Z"/><path class="cls-2" d="M282.28,29.61h-15.72V1.6h15.1v3.95h-10.45v7.93h9.63v3.93h-9.63v8.28h11.07v3.93Z"/><path class="cls-2" d="M54.39,36.86c-.37.19-.83.29-1.38.29-.71,0-1.28-.22-1.71-.67-.43-.45-.64-1.04-.64-1.77,0-.78.24-1.42.72-1.9.48-.48,1.09-.72,1.83-.72.47,0,.87.07,1.18.2v.81c-.33-.2-.69-.29-1.09-.29-.53,0-.96.17-1.29.51-.33.34-.49.79-.49,1.36s.15.97.46,1.29.71.48,1.21.48c.46,0,.86-.11,1.2-.33v.75Z"/><path class="cls-2" d="M60.04,37.06h-.95l-.78-1.31c-.07-.12-.14-.22-.21-.31-.07-.08-.14-.16-.21-.21-.07-.05-.15-.09-.23-.12-.08-.02-.17-.04-.28-.04h-.33v1.99h-.81v-4.9h1.61c.23,0,.44.03.64.08s.36.14.51.25c.14.11.26.25.34.41.08.17.12.36.12.58,0,.17-.03.33-.08.48-.05.14-.12.27-.22.39-.09.11-.21.21-.34.29-.13.08-.28.14-.45.18h0c.09.06.17.12.23.18.07.06.13.12.19.19.06.06.12.14.18.22.06.08.12.17.19.28l.87,1.38ZM57.06,32.82v1.59h.68c.13,0,.24-.02.35-.06.11-.04.2-.09.28-.17.08-.07.14-.16.18-.27.04-.1.06-.22.06-.35,0-.24-.07-.42-.22-.55-.15-.13-.36-.2-.64-.2h-.68Z"/><path class="cls-2" d="M64.29,37.06h-2.75v-4.9h2.64v.69h-1.83v1.39h1.69v.69h-1.69v1.45h1.94v.69Z"/><path class="cls-2" d="M70.19,37.06h-.89l-.44-1.25h-1.93l-.42,1.25h-.89l1.84-4.9h.92l1.82,4.9ZM68.64,35.15l-.68-1.96c-.02-.06-.04-.17-.06-.31h-.01c-.02.13-.04.23-.07.31l-.67,1.96h1.5Z"/><path class="cls-2" d="M74.44,32.85h-1.41v4.21h-.81v-4.21h-1.4v-.69h3.63v.69Z"/><path class="cls-2" d="M78.84,37.06h-2.75v-4.9h2.64v.69h-1.83v1.39h1.69v.69h-1.69v1.45h1.94v.69Z"/><path class="cls-2" d="M83.5,37.06v-4.9h1.56c.47,0,.85.1,1.13.31.28.21.42.48.42.81,0,.28-.08.52-.24.72s-.38.35-.65.44h0c.34.05.61.18.81.39.2.21.3.48.3.82,0,.42-.17.76-.5,1.02s-.75.39-1.25.39h-1.57ZM84.31,32.81v1.39h.53c.28,0,.5-.07.67-.2.16-.13.24-.32.24-.57,0-.42-.28-.63-.84-.63h-.59ZM84.31,34.86v1.55h.69c.3,0,.54-.07.7-.21.17-.14.25-.33.25-.58,0-.51-.35-.76-1.06-.76h-.59Z"/><path class="cls-2" d="M91.41,37.06h-2.75v-4.9h2.64v.69h-1.83v1.39h1.69v.69h-1.69v1.45h1.94v.69Z"/><path class="cls-2" d="M97.3,37.06h-.89l-.44-1.25h-1.93l-.42,1.25h-.89l1.84-4.9h.92l1.82,4.9ZM95.75,35.15l-.68-1.96c-.02-.06-.04-.17-.06-.31h-.01c-.02.13-.04.23-.07.31l-.67,1.96h1.5Z"/><path class="cls-2" d="M102.57,35.08c0,1.38-.65,2.06-1.96,2.06s-1.87-.66-1.87-1.99v-3h.81v2.83c0,.96.37,1.44,1.12,1.44s1.08-.46,1.08-1.39v-2.88h.81v2.92Z"/><path class="cls-2" d="M107.8,32.85h-1.41v4.21h-.81v-4.21h-1.4v-.69h3.63v.69Z"/><path class="cls-2" d="M110.28,37.06h-.84v-4.9h.84v4.9Z"/><path class="cls-2" d="M115.06,32.85h-1.83v1.47h1.69v.69h-1.69v2.05h-.81v-4.9h2.64v.69Z"/><path class="cls-2" d="M120.64,35.08c0,1.38-.65,2.06-1.96,2.06s-1.87-.66-1.87-1.99v-3h.81v2.83c0,.96.37,1.44,1.12,1.44s1.08-.46,1.08-1.39v-2.88h.81v2.92Z"/><path class="cls-2" d="M125.43,37.06h-2.71v-4.9h.81v4.21h1.9v.69Z"/><path class="cls-2" d="M135.19,37.06h-.81v-3.17c0-.26.02-.58.05-.95h-.01c-.05.21-.09.37-.13.46l-1.46,3.66h-.56l-1.47-3.64c-.04-.11-.08-.27-.13-.49h-.01c.02.2.03.52.03.96v3.17h-.75v-4.9h1.14l1.29,3.26c.1.25.16.44.19.56h.02c.08-.26.15-.45.21-.57l1.31-3.25h1.1v4.9Z"/><path class="cls-2" d="M141.36,37.06h-.89l-.44-1.25h-1.93l-.42,1.25h-.89l1.83-4.9h.92l1.82,4.9ZM139.81,35.15l-.68-1.96c-.02-.06-.04-.17-.06-.31h-.01c-.02.13-.04.23-.07.31l-.67,1.96h1.5Z"/><path class="cls-2" d="M143.79,37.06h-.84v-4.9h.84v4.9Z"/><path class="cls-2" d="M148.65,37.06h-2.71v-4.9h.81v4.21h1.9v.69Z"/><path class="cls-2" d="M158.4,37.06h-.81v-3.17c0-.26.02-.58.05-.95h-.01c-.05.21-.09.37-.13.46l-1.46,3.66h-.56l-1.47-3.64c-.04-.11-.08-.27-.13-.49h-.01c.02.2.03.52.03.96v3.17h-.75v-4.9h1.14l1.29,3.26c.1.25.16.44.19.56h.02c.08-.26.15-.45.21-.57l1.31-3.25h1.1v4.9Z"/><path class="cls-2" d="M163.29,37.06h-2.75v-4.9h2.64v.69h-1.83v1.39h1.69v.69h-1.69v1.45h1.94v.69Z"/><path class="cls-2" d="M168.88,37.06h-.95l-.78-1.31c-.07-.12-.14-.22-.21-.31-.07-.08-.14-.16-.21-.21s-.15-.09-.23-.12c-.08-.02-.17-.04-.28-.04h-.33v1.99h-.81v-4.9h1.61c.23,0,.44.03.63.08.19.05.36.14.51.25.14.11.26.25.34.41s.12.36.12.58c0,.17-.03.33-.08.48-.05.14-.12.27-.22.39-.09.11-.21.21-.34.29-.13.08-.28.14-.45.18h0c.09.06.17.12.23.18.07.06.13.12.19.19.06.06.12.14.18.22.06.08.12.17.19.28l.87,1.38ZM165.9,32.82v1.59h.68c.12,0,.24-.02.35-.06.11-.04.2-.09.28-.17.08-.07.14-.16.18-.27.04-.1.07-.22.07-.35,0-.24-.07-.42-.22-.55-.15-.13-.36-.2-.64-.2h-.68Z"/><path class="cls-2" d="M174.12,36.73c-.51.28-1.08.42-1.71.42-.72,0-1.31-.23-1.76-.68s-.67-1.05-.67-1.79.25-1.38.74-1.87,1.11-.73,1.87-.73c.54,0,1,.08,1.37.24v.84c-.38-.25-.82-.38-1.34-.38s-.95.17-1.28.52c-.33.34-.5.79-.5,1.34s.14,1.01.43,1.33.68.48,1.17.48c.34,0,.63-.06.88-.19v-1.17h-1.03v-.68h1.84v2.33Z"/><path class="cls-2" d="M178.86,37.06h-2.75v-4.9h2.64v.69h-1.83v1.39h1.69v.69h-1.69v1.45h1.94v.69Z"/><path class="cls-2" d="M180.44,36.87v-.84c.08.07.17.13.27.18s.21.1.33.14c.12.04.23.07.35.09s.22.03.32.03c.34,0,.6-.06.76-.17.17-.11.25-.28.25-.5,0-.12-.03-.22-.08-.3-.06-.08-.13-.16-.23-.23-.1-.07-.22-.14-.35-.2-.14-.06-.28-.13-.44-.2-.17-.09-.32-.18-.46-.27-.14-.09-.27-.19-.37-.3-.11-.11-.19-.24-.25-.38-.06-.14-.09-.3-.09-.49,0-.23.05-.43.16-.6.1-.17.24-.31.41-.42s.36-.19.58-.25c.22-.05.44-.08.66-.08.51,0,.89.06,1.12.17v.8c-.28-.2-.63-.3-1.07-.3-.12,0-.24.01-.36.03-.12.02-.23.06-.32.11-.09.05-.17.12-.23.2s-.09.18-.09.3c0,.11.02.2.07.28.05.08.11.15.2.22.09.07.19.13.32.19.13.06.27.13.44.2.17.09.33.18.48.28.15.1.28.21.4.32.12.12.21.25.27.4.07.14.1.31.1.49,0,.25-.05.46-.15.63-.1.17-.24.31-.41.42-.17.11-.37.18-.59.23-.22.05-.45.07-.7.07-.08,0-.18,0-.3-.02-.12-.01-.24-.03-.37-.05-.12-.02-.24-.05-.36-.09s-.2-.07-.27-.12Z"/><path class="cls-2" d="M191.62,37.06l-.45-.47c-.1.09-.21.16-.33.23-.12.07-.25.13-.38.18-.13.05-.27.08-.42.11-.14.02-.29.04-.43.04-.25,0-.47-.03-.67-.1-.2-.06-.37-.15-.51-.27-.14-.12-.25-.26-.32-.42s-.11-.35-.11-.55c0-.56.37-1.04,1.12-1.42-.34-.43-.52-.8-.52-1.13,0-.17.03-.33.1-.47s.16-.27.28-.37.26-.19.43-.24c.17-.06.35-.09.55-.09.19,0,.36.03.51.08.15.05.29.13.39.22.11.09.19.21.25.33.06.13.09.27.09.42s-.02.28-.06.4c-.04.12-.1.23-.18.34-.08.11-.19.21-.33.3s-.3.19-.5.29c.18.19.36.39.54.58s.37.38.56.58c.05-.07.09-.15.13-.25.04-.09.07-.19.1-.29.03-.1.05-.2.07-.31.02-.11.02-.21.02-.31h.69c0,.63-.2,1.17-.6,1.64.1.11.23.24.39.4.16.16.34.35.55.57h-1.01ZM190.76,36.15c-.27-.28-.68-.72-1.25-1.33-.25.13-.43.27-.54.42-.11.15-.17.32-.17.52,0,.12.02.23.07.33.04.1.11.18.18.25.08.07.17.12.28.16.11.04.22.05.34.05.43,0,.79-.13,1.09-.39ZM190.51,33.19c0-.08-.01-.15-.04-.21-.03-.07-.07-.12-.11-.17-.05-.05-.1-.09-.17-.12-.06-.03-.13-.04-.21-.04-.1,0-.18.01-.26.04-.08.03-.15.07-.2.12-.06.05-.1.12-.13.19-.03.07-.05.15-.05.24,0,.21.15.48.45.81.48-.25.72-.54.72-.87Z"/><path class="cls-2" d="M200.9,32.16l-1.76,4.9h-.91l-1.73-4.9h.89l1.21,3.72c.04.12.07.26.09.41h.01c.02-.13.05-.27.1-.42l1.24-3.71h.86Z"/><path class="cls-2" d="M206.12,37.06h-.89l-.44-1.25h-1.93l-.42,1.25h-.89l1.83-4.9h.92l1.82,4.9ZM204.57,35.15l-.68-1.96c-.02-.06-.04-.17-.06-.31h-.01c-.02.13-.04.23-.07.31l-.67,1.96h1.5Z"/><path class="cls-2" d="M211.51,37.06h-.95l-.78-1.31c-.07-.12-.14-.22-.21-.31-.07-.08-.14-.16-.21-.21s-.15-.09-.23-.12c-.08-.02-.17-.04-.28-.04h-.33v1.99h-.81v-4.9h1.61c.23,0,.44.03.63.08.19.05.36.14.51.25.14.11.26.25.34.41s.12.36.12.58c0,.17-.03.33-.08.48-.05.14-.12.27-.22.39-.09.11-.21.21-.34.29-.13.08-.28.14-.45.18h0c.09.06.17.12.23.18.07.06.13.12.19.19.06.06.12.14.18.22.06.08.12.17.19.28l.87,1.38ZM208.53,32.82v1.59h.68c.12,0,.24-.02.35-.06.11-.04.2-.09.28-.17.08-.07.14-.16.18-.27.04-.1.07-.22.07-.35,0-.24-.07-.42-.22-.55-.15-.13-.36-.2-.64-.2h-.68Z"/><path class="cls-2" d="M213.85,37.06h-.84v-4.9h.84v4.9Z"/><path class="cls-2" d="M220.01,37.06h-.89l-.44-1.25h-1.93l-.42,1.25h-.89l1.83-4.9h.92l1.82,4.9ZM218.46,35.15l-.68-1.96c-.02-.06-.04-.17-.06-.31h-.01c-.02.13-.04.23-.07.31l-.67,1.96h1.5Z"/><path class="cls-2" d="M221.62,37.06v-4.9h1.55c.47,0,.85.1,1.13.31.28.21.42.48.42.81,0,.28-.08.52-.24.72s-.38.35-.65.44h0c.34.05.61.18.81.39.2.21.3.48.3.82,0,.42-.17.76-.5,1.02-.33.26-.75.39-1.25.39h-1.57ZM222.43,32.81v1.39h.53c.28,0,.5-.07.67-.2.16-.13.24-.32.24-.57,0-.42-.28-.63-.84-.63h-.59ZM222.43,34.86v1.55h.69c.3,0,.54-.07.7-.21.17-.14.25-.33.25-.58,0-.51-.35-.76-1.06-.76h-.59Z"/><path class="cls-2" d="M229.49,37.06h-2.71v-4.9h.81v4.21h1.9v.69Z"/><path class="cls-2" d="M233.88,37.06h-2.75v-4.9h2.64v.69h-1.83v1.39h1.69v.69h-1.69v1.45h1.94v.69Z"/><path class="cls-2" d="M238.54,37.06v-4.9h1.41c1.81,0,2.71.8,2.71,2.39,0,.76-.25,1.36-.75,1.82-.5.46-1.17.69-2.02.69h-1.36ZM239.35,32.85v3.52h.65c.57,0,1.02-.16,1.33-.47.32-.31.48-.76.48-1.33,0-1.15-.59-1.72-1.78-1.72h-.68Z"/><path class="cls-2" d="M248.41,37.06h-.89l-.44-1.25h-1.93l-.42,1.25h-.89l1.83-4.9h.92l1.82,4.9ZM246.86,35.15l-.68-1.96c-.02-.06-.04-.17-.06-.31h-.01c-.02.13-.04.23-.07.31l-.67,1.96h1.5Z"/><path class="cls-2" d="M252.66,32.85h-1.41v4.21h-.81v-4.21h-1.4v-.69h3.63v.69Z"/><path class="cls-2" d="M257.82,37.06h-.89l-.44-1.25h-1.93l-.42,1.25h-.89l1.83-4.9h.92l1.82,4.9ZM256.28,35.15l-.68-1.96c-.02-.06-.04-.17-.06-.31h-.01c-.02.13-.04.23-.07.31l-.67,1.96h1.5Z"/><path class="cls-2" d="M262.28,37.06v-4.9h1.41c1.81,0,2.71.8,2.71,2.39,0,.76-.25,1.36-.75,1.82-.5.46-1.17.69-2.02.69h-1.36ZM263.09,32.85v3.52h.65c.57,0,1.02-.16,1.33-.47.32-.31.48-.76.48-1.33,0-1.15-.59-1.72-1.78-1.72h-.68Z"/><path class="cls-2" d="M270.26,37.14c-.71,0-1.27-.23-1.7-.69s-.64-1.05-.64-1.79c0-.79.22-1.42.65-1.89.43-.47,1.02-.7,1.76-.7.69,0,1.24.23,1.66.68.42.46.63,1.05.63,1.79,0,.8-.22,1.43-.65,1.9-.43.46-1.01.7-1.73.7ZM270.29,32.79c-.45,0-.81.17-1.09.5s-.42.78-.42,1.32.14.98.41,1.32c.27.33.63.5,1.07.5.47,0,.84-.16,1.11-.48.27-.32.41-.76.41-1.33s-.13-1.04-.4-1.36c-.26-.32-.63-.48-1.09-.48Z"/><path class="cls-2" d="M277.88,36.86c-.37.19-.83.29-1.38.29-.71,0-1.28-.22-1.71-.67-.43-.45-.64-1.04-.64-1.77,0-.78.24-1.42.72-1.9.48-.48,1.09-.72,1.83-.72.47,0,.87.07,1.18.2v.81c-.33-.2-.7-.29-1.09-.29-.53,0-.96.17-1.29.51-.33.34-.49.79-.49,1.36s.15.97.46,1.29.71.48,1.21.48c.46,0,.86-.11,1.2-.33v.75Z"/><path class="cls-2" d="M279.51,36.87v-.84c.08.07.17.13.27.18s.21.1.33.14c.12.04.23.07.35.09s.22.03.32.03c.34,0,.6-.06.76-.17.17-.11.25-.28.25-.5,0-.12-.03-.22-.08-.3-.06-.08-.13-.16-.23-.23-.1-.07-.22-.14-.35-.2-.14-.06-.28-.13-.44-.2-.17-.09-.32-.18-.46-.27-.14-.09-.27-.19-.37-.3-.11-.11-.19-.24-.25-.38-.06-.14-.09-.3-.09-.49,0-.23.05-.43.16-.6.1-.17.24-.31.41-.42s.36-.19.58-.25c.22-.05.44-.08.66-.08.51,0,.89.06,1.12.17v.8c-.28-.2-.63-.3-1.07-.3-.12,0-.24.01-.36.03-.12.02-.23.06-.32.11-.09.05-.17.12-.23.2s-.09.18-.09.3c0,.11.02.2.07.28.05.08.11.15.2.22.09.07.19.13.32.19.13.06.27.13.44.2.17.09.33.18.48.28.15.1.28.21.4.32.12.12.21.25.27.4.07.14.1.31.1.49,0,.25-.05.46-.15.63-.1.17-.24.31-.41.42-.17.11-.37.18-.59.23-.22.05-.45.07-.7.07-.08,0-.18,0-.3-.02-.12-.01-.24-.03-.37-.05-.12-.02-.24-.05-.36-.09s-.2-.07-.27-.12Z"/></svg>